<?xml version="1.0" standalone="no"?><!DOCTYPE svg PUBLIC "-//W3C//DTD SVG 1.1//EN" "http://www.w3.org/Graphics/SVG/1.1/DTD/svg11.dtd"><svg height="500" legacy-metrics="false" node-id="1" sillyvg="true" template-height="500" template-width="500" version="1.1" viewBox="0 0 500 500" width="500" xmlns="http://www.w3.org/2000/svg" xmlns:xlink="http://www.w3.org/1999/xlink"><defs node-id="42"><radialGradient cx="1505.6685" cy="249.7635" fx="1505.6685" fy="249.7635" gradientTransform="matrix(-1 0 0 1 1755.3368 0)" gradientUnits="userSpaceOnUse" id="SVGID_1_" node-id="3" r="242.7635"><stop offset="0" stop-color="#3be3ff"></stop><stop offset="0.3492" stop-color="#37b6ff" stop-opacity="0.6508"></stop><stop offset="0.7854" stop-color="#3283ff" stop-opacity="0.2146"></stop><stop offset="1" stop-color="#306fff" stop-opacity="0"></stop></radialGradient><clipPath id="SVGID_3_" node-id="14"><path d="M 397.86 249.76 C 397.86 331.61 331.51 397.95 249.67 397.95 C 167.82 397.95 101.48 331.61 101.48 249.76 C 101.48 167.92 167.82 101.57 249.67 101.57 C 331.51 101.57 397.86 167.92 397.86 249.76 Z" fill="#000000" fill-rule="nonzero" node-id="55" stroke="none" target-height="296.38397" target-width="296.38397" target-x="101.476" target-y="101.571"></path></clipPath></defs><path d="M 492.43 249.76 C 492.43 383.84 383.74 492.53 249.67 492.53 C 115.59 492.53 6.91 383.84 6.91 249.76 C 6.91 115.69 115.59 7.00 249.67 7.00 C 383.74 7.00 492.43 115.69 492.43 249.76 Z" fill="url(#SVGID_1_)" fill-rule="nonzero" node-id="61" stroke="none" target-height="485.526" target-width="485.526" target-x="6.905" target-y="7"></path><g node-id="143"><path d="M 438.42 249.76 C 438.42 354.01 353.91 438.51 249.67 438.51 C 145.42 438.51 60.92 354.01 60.92 249.76 C 60.92 145.52 145.42 61.01 249.67 61.01 C 353.91 61.01 438.42 145.52 438.42 249.76 Z" fill="#3be3ff" fill-opacity="0.1" fill-rule="nonzero" group-id="1" node-id="65" stroke-linecap="butt" stroke-opacity="0.1" stroke-width="1" target-height="377.50403" target-width="377.50403" target-x="60.916" target-y="61.011"></path></g><g node-id="144"><path d="M 413.36 249.76 C 413.36 340.16 340.07 413.45 249.67 413.45 C 159.27 413.45 85.98 340.16 85.98 249.76 C 85.98 159.36 159.27 86.08 249.67 86.08 C 340.07 86.08 413.36 159.36 413.36 249.76 Z" fill="#3be3ff" fill-opacity="0.4" fill-rule="nonzero" group-id="2" node-id="70" stroke-linecap="butt" stroke-opacity="0.4" stroke-width="1" target-height="327.37402" target-width="327.37402" target-x="85.981" target-y="86.076"></path></g><g node-id="145"><g node-id="146"><g clip-path="url(#SVGID_3_)" group-id="3,4" node-id="75"><path d="M 397.86 249.76 C 397.86 331.61 331.51 397.95 249.67 397.95 C 167.82 397.95 101.48 331.61 101.48 249.76 C 101.48 167.92 167.82 101.57 249.67 101.57 C 331.51 101.57 397.86 167.92 397.86 249.76 Z" fill="#3be3ff" fill-rule="nonzero" group-id="3,4" node-id="77" stroke="none" target-height="296.38397" target-width="296.38397" target-x="101.476" target-y="101.571"></path></g></g><g node-id="147"><g clip-path="url(#SVGID_3_)" group-id="3,5" node-id="80"><path d="M 201.35 109.63 C 216.49 104.41 232.75 101.57 249.67 101.57 C 274.70 101.57 298.29 107.78 318.96 118.74 C 317.78 125.25 315.93 131.70 313.34 137.46 C 302.19 162.23 330.67 175.54 339.34 184.21 C 348.01 192.88 343.05 208.97 372.77 217.02 C 380.37 219.08 387.92 220.08 394.96 220.44 C 396.86 229.92 397.86 239.72 397.86 249.76 C 397.86 294.07 378.41 333.84 347.59 360.99 L 270.31 324.75 L 226.97 220.74 L 201.35 109.63 Z" fill="#00bcff" fill-rule="nonzero" group-id="3,5" node-id="82" stroke="none" target-height="259.42297" target-width="196.51198" target-x="201.348" target-y="101.571"></path></g></g><g node-id="148"><g clip-path="url(#SVGID_3_)" group-id="3,6" node-id="85"><path d="M 202.22 390.20 L 139.67 265.62 L 144.46 145.40 C 168.20 121.47 200.04 105.60 235.54 102.24 C 235.30 106.03 234.74 110.32 233.78 115.18 C 226.97 149.54 256.69 162.23 241.83 178.02 C 226.97 193.81 246.78 234.98 257.92 234.98 C 269.07 234.98 278.97 242.10 275.26 259.74 C 271.55 277.39 326.96 321.04 341.82 317.63 C 350.13 315.73 362.99 324.38 372.71 332.38 C 346.11 371.93 300.93 397.96 249.67 397.96 C 233.07 397.96 217.12 395.23 202.22 390.20 Z" fill="#306fff" fill-rule="nonzero" group-id="3,6" node-id="87" stroke="none" target-height="295.717" target-width="233.045" target-x="139.67" target-y="102.24"></path></g></g><g node-id="149"><g clip-path="url(#SVGID_3_)" group-id="3,7" node-id="90"><path d="M 175.21 121.61 C 188.75 138.51 180.61 183.83 166.60 197.83 C 149.27 215.17 182.70 281.72 193.84 281.72 C 204.99 281.72 251.73 309.89 249.57 340.85 C 248.17 360.77 297.91 368.77 333.56 371.94 C 309.71 388.35 280.81 397.96 249.67 397.96 C 167.82 397.96 101.48 331.61 101.48 249.76 C 101.48 195.06 131.12 147.29 175.21 121.61 Z" fill="#4344f2" fill-rule="nonzero" group-id="3,7" node-id="92" stroke="none" target-height="276.345" target-width="232.08301" target-x="101.477" target-y="121.611"></path></g></g><g node-id="150"><g clip-path="url(#SVGID_3_)" group-id="3,8" node-id="95"><path d="M 299.72 240.61 C 299.72 254.55 290.01 265.86 278.05 265.86 C 266.08 265.86 256.38 254.55 256.38 240.61 C 256.38 226.67 266.08 215.37 278.05 215.37 C 290.01 215.37 299.72 226.67 299.72 240.61 Z" fill="#0079fa" fill-rule="nonzero" group-id="3,8" node-id="97" stroke="none" target-height="50.48999" target-width="43.339996" target-x="256.376" target-y="215.367"></path><path d="M 256.38 240.61 C 256.38 233.53 258.88 227.13 262.91 222.55 C 266.09 220.41 269.78 219.19 273.71 219.19 C 285.68 219.19 295.38 230.50 295.38 244.44 C 295.38 251.52 292.88 257.92 288.85 262.50 C 285.67 264.64 281.98 265.86 278.05 265.86 C 266.08 265.86 256.38 254.56 256.38 240.61 Z" fill="#009cfe" fill-rule="nonzero" group-id="3,8" node-id="99" stroke="none" target-height="46.664993" target-width="39.00598" target-x="256.376" target-y="219.192"></path></g></g><g node-id="151"><g clip-path="url(#SVGID_3_)" group-id="3,9" node-id="102"><path d="M 342.96 305.16 L 344.99 306.33 L 346.74 307.81 L 348.23 309.63 L 349.48 311.83 L 350.63 315.00 L 351.29 318.57 L 351.42 322.61 L 351.00 326.65 L 350.00 330.83 L 348.38 335.21 L 346.21 339.34 L 343.77 342.88 L 341.05 345.89 L 337.96 348.50 L 334.87 350.40 L 331.74 351.66 L 329.27 352.20 L 326.91 352.31 L 324.64 352.00 L 322.41 351.28 L 320.39 350.11 L 318.64 348.62 L 317.14 346.80 L 315.90 344.60 L 314.74 341.43 L 314.08 337.86 L 313.95 333.82 L 314.37 329.79 L 315.37 325.60 L 316.99 321.23 L 319.16 317.09 L 321.60 313.55 L 324.32 310.54 L 327.41 307.93 L 330.51 306.04 L 333.64 304.78 L 336.11 304.23 L 338.46 304.12 L 340.73 304.43 L 342.96 305.16 Z" fill="#0079fa" fill-rule="nonzero" group-id="3,9" node-id="104" stroke-linecap="butt" stroke-width="1.0000249" target-height="48.18863" target-width="37.473236" target-x="313.9503" target-y="304.12292"></path><path d="M 316.99 321.25 C 319.87 314.78 324.29 309.74 329.07 306.86 C 332.25 305.93 335.41 306.01 338.26 307.28 C 346.93 311.14 349.36 324.59 343.68 337.33 C 340.80 343.80 336.38 348.84 331.60 351.72 C 328.43 352.65 325.26 352.57 322.41 351.30 C 313.74 347.44 311.32 333.99 316.99 321.25 Z" fill="#009cfe" fill-rule="nonzero" group-id="3,9" node-id="106" stroke="none" target-height="46.086456" target-width="32.7771" target-x="313.94745" target-y="306.24728"></path></g></g><g node-id="152"><g clip-path="url(#SVGID_3_)" group-id="3,10" node-id="109"><path d="M 205.99 334.94 L 210.74 335.27 L 215.21 336.14 L 219.42 337.51 L 223.43 339.39 L 227.07 341.67 L 230.35 344.35 L 233.27 347.42 L 235.70 350.77 L 237.68 354.42 L 239.14 358.31 L 240.01 362.39 L 240.31 366.72 L 239.95 371.04 L 239.02 375.11 L 237.51 378.97 L 235.48 382.60 L 233.00 385.92 L 230.04 388.95 L 226.72 391.58 L 223.06 393.81 L 219.02 395.63 L 214.79 396.95 L 210.31 397.75 L 205.56 398.02 L 200.81 397.68 L 196.35 396.82 L 192.13 395.44 L 188.12 393.57 L 184.49 391.29 L 181.20 388.61 L 178.29 385.54 L 175.85 382.19 L 173.87 378.53 L 172.42 374.65 L 171.54 370.56 L 171.24 366.24 L 171.60 361.92 L 172.53 357.85 L 174.04 353.98 L 176.07 350.35 L 178.55 347.04 L 181.51 344.01 L 184.83 341.37 L 188.49 339.15 L 192.53 337.33 L 196.77 336.01 L 201.24 335.21 L 205.99 334.94 Z" fill="#0079fa" fill-rule="nonzero" group-id="3,10" node-id="111" stroke-linecap="butt" stroke-width="1.0000237" target-height="63.07599" target-width="69.07001" target-x="171.24156" target-y="334.94"></path><path d="M 171.24 366.26 C 171.30 357.41 175.35 349.44 181.81 343.76 C 186.90 341.13 192.79 339.65 199.05 339.69 C 218.13 339.82 233.49 354.05 233.37 371.47 C 233.31 380.31 229.26 388.28 222.80 393.96 C 217.71 396.59 211.82 398.08 205.56 398.03 C 186.48 397.90 171.12 383.68 171.24 366.26 Z" fill="#009cfe" fill-rule="nonzero" group-id="3,10" node-id="113" stroke="none" target-height="58.343994" target-width="62.128006" target-x="171.241" target-y="339.689"></path></g></g><g node-id="153"><g clip-path="url(#SVGID_3_)" group-id="3,11" node-id="116"><path d="M 311.17 150.86 C 311.17 157.63 306.46 163.12 300.64 163.12 C 294.83 163.12 290.12 157.63 290.12 150.86 C 290.12 144.09 294.83 138.60 300.64 138.60 C 306.46 138.60 311.17 144.09 311.17 150.86 Z" fill="#0079fa" fill-rule="nonzero" group-id="3,11" node-id="118" stroke="none" target-height="24.523987" target-width="21.050018" target-x="290.119" target-y="138.6"></path><path d="M 290.12 150.86 C 290.12 147.42 291.33 144.31 293.29 142.09 C 294.84 141.05 296.63 140.46 298.54 140.46 C 304.35 140.46 309.06 145.95 309.06 152.72 C 309.06 156.16 307.85 159.27 305.89 161.50 C 304.35 162.53 302.56 163.12 300.64 163.12 C 294.83 163.12 290.12 157.63 290.12 150.86 Z" fill="#009cfe" fill-rule="nonzero" group-id="3,11" node-id="120" stroke="none" target-height="22.666" target-width="18.946014" target-x="290.119" target-y="140.458"></path></g></g><g node-id="154"><g clip-path="url(#SVGID_3_)" group-id="3,12" node-id="123"><path d="M 386.60 216.03 L 387.11 219.89 L 387.20 223.25 L 386.89 226.38 L 386.27 228.64 L 385.60 229.92 L 384.85 230.67 L 384.01 231.04 L 383.10 230.99 L 382.14 230.55 L 381.05 229.60 L 379.67 227.71 L 378.26 224.90 L 377.15 221.72 L 376.25 217.93 L 375.74 214.07 L 375.66 210.71 L 375.97 207.58 L 376.59 205.32 L 377.26 204.04 L 378.01 203.29 L 378.84 202.92 L 379.75 202.97 L 380.72 203.41 L 381.81 204.36 L 383.19 206.25 L 384.59 209.06 L 385.71 212.24 L 386.60 216.03 Z" fill="#0079fa" fill-rule="nonzero" group-id="3,12" node-id="125" stroke-linecap="butt" stroke-width="0.99998045" target-height="28.110413" target-width="11.54718" target-x="375.6551" target-y="202.92462"></path><path d="M 376.26 217.92 C 375.54 213.98 375.48 210.31 375.98 207.58 C 376.52 206.25 377.27 205.41 378.21 205.24 C 381.07 204.71 384.55 210.58 385.97 218.34 C 386.70 222.28 386.75 225.96 386.26 228.69 C 385.72 230.01 384.96 230.85 384.02 231.03 C 381.17 231.55 377.69 225.69 376.26 217.92 Z" fill="#009cfe" fill-rule="nonzero" group-id="3,12" node-id="127" stroke="none" target-height="25.791992" target-width="10.910248" target-x="375.66388" target-y="205.235"></path></g></g><g node-id="155"><g clip-path="url(#SVGID_3_)" group-id="3,13" node-id="130"><path d="M 159.75 157.98 L 160.88 158.92 L 161.77 160.16 L 162.42 161.76 L 162.81 163.83 L 162.87 166.60 L 162.50 169.84 L 161.59 173.65 L 160.32 177.34 L 158.59 181.24 L 156.35 185.37 L 153.78 189.29 L 151.16 192.66 L 148.50 195.52 L 145.58 198.12 L 142.90 199.98 L 140.42 201.24 L 138.42 201.87 L 136.70 202.05 L 135.19 201.86 L 133.83 201.31 L 132.70 200.37 L 131.81 199.13 L 131.16 197.52 L 130.77 195.46 L 130.71 192.69 L 131.09 189.44 L 131.99 185.64 L 133.26 181.94 L 134.99 178.05 L 137.23 173.92 L 139.80 170.00 L 142.42 166.63 L 145.08 163.77 L 148.00 161.17 L 150.69 159.30 L 153.16 158.05 L 155.16 157.42 L 156.88 157.23 L 158.39 157.43 L 159.75 157.98 Z" fill="#0079fa" fill-rule="nonzero" group-id="3,13" node-id="132" stroke-linecap="butt" stroke-width="1.0000088" target-height="44.82057" target-width="32.166748" target-x="130.70728" target-y="157.23291"></path><path d="M 137.23 173.93 C 140.86 167.85 145.25 163.02 149.39 160.15 C 151.89 159.16 154.14 159.09 155.88 160.13 C 161.16 163.29 159.64 175.55 152.48 187.51 C 148.84 193.59 144.45 198.42 140.31 201.29 C 137.81 202.28 135.56 202.35 133.83 201.31 C 128.54 198.15 130.07 185.89 137.23 173.93 Z" fill="#009cfe" fill-rule="nonzero" group-id="3,13" node-id="134" stroke="none" target-height="42.68138" target-width="28.29065" target-x="130.70633" target-y="159.37881"></path></g></g><g clip-path="url(#SVGID_3_)" group-id="3,14" node-id="137"><path d="M 228.71 122.50 L 232.60 123.32 L 236.07 124.39 L 239.15 125.70 L 242.07 127.35 L 244.36 129.07 L 246.11 130.86 L 247.45 132.92 L 248.09 134.90 L 248.12 136.88 L 247.48 138.76 L 246.26 140.45 L 244.34 141.98 L 242.12 143.14 L 239.41 144.07 L 236.13 144.73 L 232.79 145.02 L 229.16 144.97 L 225.21 144.54 L 221.32 143.72 L 217.85 142.65 L 214.77 141.34 L 211.85 139.69 L 209.56 137.97 L 207.81 136.18 L 206.47 134.12 L 205.83 132.14 L 205.80 130.16 L 206.44 128.28 L 207.66 126.59 L 209.58 125.05 L 211.80 123.90 L 214.51 122.97 L 217.79 122.31 L 221.13 122.02 L 224.76 122.07 L 228.71 122.50 Z" fill="#0079fa" fill-rule="nonzero" group-id="3,14" node-id="139" stroke-linecap="butt" stroke-width="1.0000014" target-height="23.004364" target-width="42.31273" target-x="205.80344" target-y="122.0177"></path><path d="M 205.81 130.16 C 206.30 127.07 209.19 124.67 213.45 123.29 C 216.70 122.85 220.38 122.89 224.22 123.50 C 235.91 125.36 244.59 131.80 243.63 137.89 C 243.14 140.98 240.25 143.38 235.99 144.76 C 232.74 145.19 229.06 145.15 225.22 144.54 C 213.53 142.69 204.84 136.25 205.81 130.16 Z" fill="#009cfe" fill-rule="nonzero" group-id="3,14" node-id="141" stroke="none" target-height="22.015045" target-width="37.815002" target-x="205.812" target-y="123.01631"></path></g></g></svg>